<svg xmlns="http://www.w3.org/2000/svg" width="35.676" height="40" viewBox="0 0 35.676 40">
  <g id="Group_2572" data-name="Group 2572" transform="translate(-2528 -475)">
    <rect id="Rectangle_751" data-name="Rectangle 751" width="35.676" height="40" rx="14.804" transform="translate(2528 475)" fill="#e6f9f6"/>
    <path id="Path_1415" data-name="Path 1415" d="M2555.674,478.243a4.765,4.765,0,0,1,4.759,4.759v24a4.765,4.765,0,0,1-4.759,4.759H2536a4.765,4.765,0,0,1-4.759-4.759V483a4.765,4.765,0,0,1,4.759-4.759h19.672m0-3.243H2536a8,8,0,0,0-8,8v24a8,8,0,0,0,8,8h19.672a8,8,0,0,0,8-8V483a8,8,0,0,0-8-8Z" fill="#05c4a3"/>
    <path id="Path_1416" data-name="Path 1416" d="M2551.568,496.243h-5.946a1.622,1.622,0,0,1,0-3.243h5.946a1.622,1.622,0,0,1,0,3.243Z" transform="translate(-7.351 -8.27)" fill="#05c4a3"/>
    <path id="Path_1417" data-name="Path 1417" d="M2560.216,512.243h-14.595a1.622,1.622,0,0,1,0-3.243h14.595a1.622,1.622,0,0,1,0,3.243Z" transform="translate(-7.351 -15.622)" fill="#05c4a3"/>
    <path id="Path_1418" data-name="Path 1418" d="M2560.216,527.243h-14.595a1.622,1.622,0,0,1,0-3.243h14.595a1.622,1.622,0,0,1,0,3.243Z" transform="translate(-7.351 -22.514)" fill="#05c4a3"/>
  </g>
</svg>
