<svg xmlns="http://www.w3.org/2000/svg" width="34.134" height="40" viewBox="0 0 34.134 40">
  <g id="Group_2570" data-name="Group 2570" transform="translate(-1884 -475)">
    <path id="Path_1394" data-name="Path 1394" d="M1916.681,494.412a9.76,9.76,0,0,1-1.855-5.814c0-.088,0-.176,0-.265h0A13.333,13.333,0,0,0,1901.5,475h-.857a13.333,13.333,0,0,0-13.333,13.333h0c0,.089,0,.177,0,.265a9.76,9.76,0,0,1-1.855,5.814,7.947,7.947,0,0,0-1.435,5.118,8.142,8.142,0,0,0,8.2,7.47h17.7a8.142,8.142,0,0,0,8.2-7.47A7.946,7.946,0,0,0,1916.681,494.412Z" fill="#ffe9f0"/>
    <path id="Path_1395" data-name="Path 1395" d="M1901.495,478.2a10.145,10.145,0,0,1,10.133,10.133c0,.067,0,.134,0,.2a12.915,12.915,0,0,0,2.439,7.721,4.737,4.737,0,0,1,.857,3.068,4.922,4.922,0,0,1-5,4.476h-17.7a4.922,4.922,0,0,1-5-4.476,4.735,4.735,0,0,1,.857-3.068,12.917,12.917,0,0,0,2.439-7.722c0-.067,0-.133,0-.2a10.145,10.145,0,0,1,10.133-10.133h.856m0-3.2h-.856a13.333,13.333,0,0,0-13.333,13.333h0c0,.089,0,.177,0,.265a9.76,9.76,0,0,1-1.855,5.814,7.947,7.947,0,0,0-1.435,5.118,8.142,8.142,0,0,0,8.2,7.47h17.7a8.142,8.142,0,0,0,8.2-7.47,7.946,7.946,0,0,0-1.435-5.118,9.76,9.76,0,0,1-1.855-5.814c0-.088,0-.176,0-.265h0A13.333,13.333,0,0,0,1901.495,475Z" fill="#fe2865"/>
    <path id="Path_1396" data-name="Path 1396" d="M1914.706,540a1.629,1.629,0,0,0-1.185.529,5.045,5.045,0,0,1-7.38,0,1.629,1.629,0,0,0-1.185-.529h0a1.6,1.6,0,0,0-1.172,2.693,8.245,8.245,0,0,0,12.094,0,1.6,1.6,0,0,0-1.172-2.693Z" transform="translate(-9.032 -30.333)" fill="#fe2865"/>
  </g>
</svg>
