<svg xmlns="http://www.w3.org/2000/svg" width="39.452" height="40" viewBox="0 0 39.452 40">
  <g id="Group_2571" data-name="Group 2571" transform="translate(-2204 -473)">
    <rect id="Rectangle_749" data-name="Rectangle 749" width="39.452" height="36.712" rx="14.804" transform="translate(2204 476.288)" fill="#e5f1ff"/>
    <path id="Path_1406" data-name="Path 1406" d="M2235.34,482.288a4.83,4.83,0,0,1,4.824,4.824V507.6a4.83,4.83,0,0,1-4.824,4.824h-23.229a4.83,4.83,0,0,1-4.824-4.824V487.112a4.83,4.83,0,0,1,4.824-4.824h23.229m0-3.288h-23.229a8.112,8.112,0,0,0-8.112,8.112V507.6a8.112,8.112,0,0,0,8.112,8.112h23.229a8.112,8.112,0,0,0,8.112-8.112V487.112A8.112,8.112,0,0,0,2235.34,479Z" transform="translate(0 -2.712)" fill="#0088c6"/>
    <path id="Path_1407" data-name="Path 1407" d="M2224.905,482.315a1.644,1.644,0,0,1-1.644-1.644v-6.027a1.644,1.644,0,1,1,3.288,0v6.027A1.644,1.644,0,0,1,2224.905,482.315Z" transform="translate(-8.707)" fill="#0088c6"/>
    <path id="Path_1408" data-name="Path 1408" d="M2254.644,482.315a1.644,1.644,0,0,1-1.644-1.644v-6.027a1.644,1.644,0,0,1,3.288,0v6.027A1.644,1.644,0,0,1,2254.644,482.315Z" transform="translate(-22.151)" fill="#0088c6"/>
    <path id="Path_1409" data-name="Path 1409" d="M2223.644,513a1.644,1.644,0,1,0,1.644,1.644,1.644,1.644,0,0,0-1.644-1.644Z" transform="translate(-8.137 -18.082)" fill="#0088c6"/>
    <path id="Path_1410" data-name="Path 1410" d="M2239.644,513a1.644,1.644,0,1,0,1.644,1.644,1.644,1.644,0,0,0-1.644-1.644Z" transform="translate(-15.37 -18.082)" fill="#0088c6"/>
    <path id="Path_1411" data-name="Path 1411" d="M2255.644,513a1.644,1.644,0,1,0,1.644,1.644,1.644,1.644,0,0,0-1.644-1.644Z" transform="translate(-22.603 -18.082)" fill="#0088c6"/>
    <path id="Path_1412" data-name="Path 1412" d="M2223.644,527a1.644,1.644,0,1,0,1.644,1.644,1.644,1.644,0,0,0-1.644-1.644Z" transform="translate(-8.137 -24.411)" fill="#0088c6"/>
    <path id="Path_1413" data-name="Path 1413" d="M2239.644,527a1.644,1.644,0,1,0,1.644,1.644,1.644,1.644,0,0,0-1.644-1.644Z" transform="translate(-15.37 -24.411)" fill="#0088c6"/>
    <path id="Path_1414" data-name="Path 1414" d="M2255.644,527a1.644,1.644,0,1,0,1.644,1.644,1.644,1.644,0,0,0-1.644-1.644Z" transform="translate(-22.603 -24.411)" fill="#0088c6"/>
    <rect id="Rectangle_750" data-name="Rectangle 750" width="36.474" height="3.288" transform="translate(2205.096 487.247)" fill="#0088c6"/>
  </g>
</svg>
